<?xml version="1.0" standalone="no"?>
<!DOCTYPE svg PUBLIC "-//W3C//DTD SVG 1.1//EN" "http://www.w3.org/Graphics/SVG/1.1/DTD/svg11.dtd" >
<svg xmlns="http://www.w3.org/2000/svg">
<metadata>
This is a custom SVG font generated by IcoMoon.
<iconset grid="20"></iconset>
</metadata>
<defs>
<font id="FLSmidth.ICLCom-Icon-Font" horiz-adv-x="640" >
<font-face units-per-em="640" ascent="608" descent="-32" />
<missing-glyph horiz-adv-x="640" />
<glyph unicode="&#x22;" d="M 224.00,320.00L 32.00,320.00 c-17.664,0.00-32.00-14.336-32.00-32.00s 14.336-32.00, 32.00-32.00l 192.00,0.00 c 17.664,0.00, 32.00,14.336, 32.00,32.00S 241.664,320.00, 224.00,320.00z M 224.00,192.00L 32.00,192.00 c-17.664,0.00-32.00-14.304-32.00-32.00s 14.336-32.00, 32.00-32.00l 192.00,0.00 
		c 17.664,0.00, 32.00,14.304, 32.00,32.00S 241.664,192.00, 224.00,192.00z M 620.80,320.00L 512.00,320.00 L 512.00,428.80 C 512.00,446.464, 497.696,448.00, 480.00,448.00s-32.00-1.536-32.00-19.20L 448.00,320.00 l-105.60,0.00 C 324.704,320.00, 323.20,305.664, 323.20,288.00
		s 1.536-32.00, 19.232-32.00L 448.00,256.00 l0.00-108.80 c0.00-17.664, 14.304-19.20, 32.00-19.20s 32.00,1.536, 32.00,19.20L 512.00,256.00 l 108.80,0.00 c 17.664,0.00, 19.20,14.336, 19.20,32.00S 638.464,320.00, 620.80,320.00z M 224.00,448.00L 32.00,448.00 
		C 14.336,448.00,0.00,433.664,0.00,416.00s 14.336-32.00, 32.00-32.00l 192.00,0.00 c 17.664,0.00, 32.00,14.336, 32.00,32.00S 241.664,448.00, 224.00,448.00z" data-tags="add-to-list, plus, list" />
<glyph unicode="&#x23;" d="M 560.00,261.333l0.00-293.333 L 80.00-32.00 L 80.00,261.333 l 53.333,0.00 L 133.333,448.00 c0.00,80.00, 78.347,160.00, 186.667,160.00c 106.667,0.00, 186.667-80.00, 186.667-160.00c0.00-26.667-1.173-58.88,0.00-106.667l-106.667,0.00 c0.00,26.667,0.00,26.667,0.00,80.00s-26.667,80.00-80.00,80.00S 240.00,474.667, 240.00,421.333l0.00-160.00 L 560.00,261.333 z
	" data-tags="access" />
<glyph unicode="&#x24;" d="M 400.00,448.00L 400.00,608.00 L 120.00,608.00 L0.00,488.00l0.00-360.00 l 240.00,0.00 l0.00-160.00 l 400.00,0.00 L 640.00,448.00 L 400.00,448.00 z M 120.00,551.431L 120.00,488.00 L 56.569,488.00 L 120.00,551.431z M 40.00,168.00L 40.00,448.00 l 120.00,0.00 L 160.00,568.00 l 200.00,0.00 l0.00-120.00 l-120.00-120.00l0.00-160.00 L 40.00,168.00 z
	 M 360.00,391.431L 360.00,328.00 l-63.431,0.00 L 360.00,391.431z M 600.00,8.00L 280.00,8.00 L 280.00,288.00 l 120.00,0.00 l0.00,120.00 l 200.00,0.00 L 600.00,8.00 z" data-tags="copy" />
<glyph unicode="&#x25;" d="M 480.00,102.40L 64.00,102.40 l0.00,288.00 l 83.04,0.00 c0.00,0.00, 22.048,28.672, 69.44,64.00L 32.00,454.40 c-17.664,0.00-32.00-14.336-32.00-32.00l0.00-352.00 c0.00-17.696, 14.336-32.00, 32.00-32.00l 480.00,0.00 c 17.696,0.00, 32.00,14.304, 32.00,32.00l0.00,119.872 
		l-64.00-52.64L 480.00,102.40 z M 427.584,324.80l0.00-113.60 L 640.00,377.632L 427.584,537.60l0.00-100.16 C 169.60,437.408, 169.60,182.40, 169.60,182.40C 242.624,302.336, 287.552,324.80, 427.584,324.80z" data-tags="export" />
<glyph unicode="&#x26;" d="M 478.214,319.786q 6.071-14.643 -5.00-25.00l-160.00-160.00q-6.429-6.786 -16.071-6.786t-16.071,6.786l-160.00,160.00q-11.071,10.357 -5.00,25.00q 6.071,13.929 21.071,13.929l 91.429,0.00 l0.00,160.00 q0.00,9.286 6.786,16.071t 16.071,6.786l 91.429,0.00 q 9.286,0.00 16.071-6.786t 6.786-16.071l0.00-160.00 l 91.429,0.00 q 15.00,0.00 21.071-13.929zM 582.857,242.286q 5.00,0.00 8.214-3.214t 3.214-8.214l0.00-205.714 q0.00-5.00 -3.214-8.214t-8.214-3.214l-571.429,0.00 q-5.00,0.00 -8.214,3.214t-3.214,8.214l0.00,205.714 q0.00,5.00 3.214,8.214 t 8.214,3.214l 68.571,0.00 q 5.00,0.00 8.214-3.214t 3.214-8.214l0.00-125.714 l 411.429,0.00 l0.00,125.714 q0.00,5.00 3.214,8.214t 8.214,3.214l 68.571,0.00 z" horiz-adv-x="594.2857142857143" data-tags="save" />
<glyph unicode="&#x27;" d="M 512.691,160.691c0.00-3.354-1.28-6.298-3.84-8.883l-179.968-179.968C 326.298-30.72, 323.354-32.00, 320.00-32.00s-6.298,1.28-8.883,3.84
	l-179.968,179.968c-2.586,2.586-3.84,5.53-3.84,8.883s 1.28,6.323, 3.84,8.909l 19.328,19.302c 2.586,2.586, 5.53,3.84, 8.883,3.84
	s 6.298-1.28, 8.883-3.84L 320.00,37.12l 151.782,151.782c 2.586,2.586, 5.555,3.84, 8.909,3.84s 6.272-1.28, 8.883-3.84l 19.302-19.302
	C 511.437,167.014, 512.691,164.045, 512.691,160.691zM 127.309,415.283c0.00,3.354, 1.28,6.323, 3.84,8.883l 179.968,179.968C 313.702,606.72, 316.646,608.00, 320.00,608.00s 6.298-1.28, 8.883-3.866l 179.968-179.968
	c 2.586-2.56, 3.84-5.53, 3.84-8.883s-1.28-6.298-3.84-8.883l-19.328-19.328c-2.586-2.56-5.53-3.84-8.858-3.84
	c-3.354,0.00-6.323,1.306-8.909,3.84L 320.00,538.88L 168.218,387.098c-2.56-2.56-5.53-3.84-8.883-3.84s-6.298,1.306-8.883,3.84L 131.149,406.40
	C 128.563,408.986, 127.309,411.93, 127.309,415.283z" data-tags="sort" />
<glyph unicode="&#x28;" d="M 265.00,46.214l-232.857,232.50q-13.214,13.214 -13.214,32.321t 13.214,32.321l 232.857,232.50q 13.214,13.214 32.321,13.214t 32.321-13.214l 26.786-26.786q 13.214-13.214 13.214-32.321t-13.214-32.321l-173.571-173.571l 173.571-173.214q 13.214-13.571 13.214-32.50t-13.214-32.143l-26.786-26.786q-13.214-13.214 -32.321-13.214t-32.321,13.214z" horiz-adv-x="411.42857142857144" data-tags="chevron-left" />
<glyph unicode="&#x29;" d="M 392.50,310.857q0.00-18.571 -13.214-32.50l-232.857-232.50q-13.214-13.214 -32.143-13.214t-32.143,13.214l-27.143,26.786q-13.214,13.929 -13.214,32.50q0.00,18.929 13.214,32.143l 173.571,173.571l-173.571,173.214q-13.214,13.929 -13.214,32.50q0.00,18.929 13.214,32.143l 27.143,26.786q 12.857,13.571 32.143,13.571t 32.143-13.571l 232.857-232.50q 13.214-13.214 13.214-32.143z" horiz-adv-x="411.42857142857144" data-tags="chevron-right" />
<glyph unicode="&#x2a;" d="M 448.00,140.80c-31.584,0.00-58.752-19.136-70.528-46.40L 272.00,94.40 c-45.184,0.00-49.408,38.144-49.60,49.60l0.00,123.776 c 13.792-6.368, 30.176-10.176, 49.60-10.176
	l 105.472,0.00 c 11.776-27.296, 38.944-46.40, 70.528-46.40c 42.40,0.00, 76.80,34.40, 76.80,76.80S 490.40,364.80, 448.00,364.80c-31.584,0.00-58.752-19.136-70.528-46.40L 272.00,318.40 
	c-45.184,0.00-49.408,38.144-49.60,49.60L 222.40,441.472 C 249.696,453.248, 268.768,480.416, 268.768,512.00c0.00,42.40-34.368,76.80-76.768,76.80S 115.20,554.40, 115.20,512.00
	c0.00-31.584, 19.136-58.72, 46.40-70.528L 161.60,144.00 c0.00-44.384, 29.408-110.40, 110.40-110.40l 105.472,0.00 c 11.776-27.296, 38.944-46.40, 70.528-46.40
	c 42.40,0.00, 76.80,34.368, 76.80,76.80C 524.80,106.40, 490.40,140.80, 448.00,140.80z M 448.00,332.32c 24.48,0.00, 44.32-19.84, 44.32-44.32s-19.84-44.32-44.32-44.32
	s-44.32,19.84-44.32,44.32S 423.52,332.32, 448.00,332.32z M 147.68,512.00c0.00,24.48, 19.84,44.32, 44.32,44.32S 236.32,536.48, 236.32,512.00S 216.48,467.68, 192.00,467.68
	S 147.68,487.52, 147.68,512.00z M 448.00,19.68c-24.48,0.00-44.32,19.84-44.32,44.32s 19.84,44.32, 44.32,44.32s 44.32-19.84, 44.32-44.32
	S 472.48,19.68, 448.00,19.68z" data-tags="cascade" />
<glyph unicode="&#x2b;" d="M 27.049,398.95c 17.007-9.166, 252.628-135.706, 261.411-140.411C 297.207,253.836, 308.568,251.57, 319.999,251.57c 11.466,0.00, 22.826,2.266, 31.574,7.005
		c 8.782,4.705, 244.369,131.245, 261.376,140.411C 629.99,408.116, 646.09,436.797, 614.83,436.797L 25.202,436.797 C -6.058,436.797, 10.007,408.116, 27.049,398.95z M 620.163,329.251
		c-19.342-10.107-256.74-134.208-268.59-140.411S 331.464,181.834, 319.999,181.834c-11.43,0.00-19.69,0.801-31.539,7.005S 39.177,319.18, 19.869,329.251
		C 6.244,336.36, 6.348,328.031, 6.348,321.618c0.00-6.413,0.00-255.625,0.00-255.625C 6.348,51.356, 25.829,32.538, 40.919,32.538l 558.194,0.00 c 15.124,0.00, 34.537,18.819, 34.537,33.421
		c0.00,0.00,0.00,249.213,0.00,255.625C 633.649,328.031, 633.788,336.36, 620.163,329.251z" data-tags="email" />
<glyph unicode="&#x2c;" d="M 634.164,93.837c-0.003,0.003-0.005,0.005-0.007,0.006L 440.004,288.00l 194.153,194.156c 0.003,0.003, 0.005,0.004, 0.007,0.006
		c 2.09,2.091, 3.601,4.534, 4.57,7.135c 2.654,7.11, 1.14,15.426-4.577,21.144L 542.44,602.157c-5.717,5.716-14.031,7.229-21.143,4.575
		c-2.60-0.969-5.044-2.48-7.136-4.569c0.00-0.003-0.003-0.004-0.005-0.006L 320.001,408.00L 125.846,602.156
		c-0.003,0.003-0.004,0.004-0.006,0.006c-2.091,2.089-4.534,3.60-7.134,4.569c-7.113,2.655-15.426,1.141-21.144-4.575L 5.845,510.439
		c-5.717-5.717-7.23-14.033-4.576-21.143c 0.97-2.60, 2.481-5.045, 4.57-7.135c 0.003-0.001, 0.004-0.004, 0.006-0.006L 200.001,288.00
		L 5.845,93.842c-0.001-0.003-0.004-0.004-0.005-0.006c-2.089-2.091-3.60-4.534-4.571-7.134c-2.655-7.11-1.141-15.426, 4.576-21.144
		l 91.718-91.716c 5.719-5.717, 14.033-7.23, 21.144-4.576c 2.60,0.97, 5.044,2.481, 7.135,4.57c 0.001,0.003, 0.004,0.004, 0.006,0.006
		l 194.155,194.156l 194.155-194.156c 0.003-0.001, 0.005-0.004, 0.007-0.005c 2.092-2.09, 4.534-3.601, 7.134-4.571
		c 7.111-2.654, 15.428-1.141, 21.143,4.576l 91.716,91.718c 5.717,5.717, 7.231,14.034, 4.577,21.144
		C 637.765,89.304, 636.254,91.746, 634.164,93.837z" data-tags="cancel" />
<glyph unicode="&#x2d;" d="M 546.275,514.274 C 606.714,453.834 640.00,373.474 640.00,287.999 C 640.00,202.524 606.714,122.165 546.275,61.725 C 485.834,1.286 405.475-32.00 320.00-32.00 C 234.525-32.00 154.166,1.286 93.725,61.725 C 33.286,122.165 0.00,202.524 0.00,287.999 C 0.00,373.474 33.284,453.834 93.725,514.274 C 154.166,574.714 234.525,608.00 320.00,608.00 C 405.475,608.00 485.834,574.714 546.275,514.274 Z M 517.99,90.009 C 557.401,129.421 583.606,178.514 594.41,231.922 C 585.989,219.525 577.934,214.926 572.945,242.676 C 567.808,287.92 526.253,259.019 500.123,275.089 C 472.62,256.553 410.806,311.127 421.311,249.574 C 437.52,221.81 508.816,286.73 473.279,227.985 C 450.607,186.975 390.378,96.152 398.212,49.074 C 399.201-19.516 328.129,34.771 303.641,57.524 C 287.169,103.099 298.027,182.757 254.955,205.077 C 208.204,207.108 168.077,211.356 149.959,263.621 C 139.055,301.014 161.561,356.68 201.633,365.274 C 260.289,402.127 281.241,322.115 336.251,320.627 C 353.331,338.499 399.886,344.181 403.746,364.221 C 367.653,370.59 449.539,394.57 400.291,408.21 C 373.123,405.015 355.618,380.039 370.061,358.861 C 317.413,346.585 315.726,435.051 265.118,407.148 C 263.831,363.029 182.479,392.844 236.97,401.79 C 255.692,409.97 206.432,433.675 233.045,429.368 C 246.118,430.078 290.127,445.50 278.218,455.869 C 302.724,471.081 323.317,419.437 347.304,457.045 C 364.621,485.961 340.041,491.30 318.335,476.643 C 306.097,490.345 339.941,519.94 369.793,532.729 C 379.741,536.991 389.244,539.314 396.509,538.656 C 411.545,521.286 439.353,518.277 440.808,540.745 C 403.569,558.579 362.51,568.00 320.00,568.00 C 258.986,568.00 200.956,548.61 152.933,512.756 C 165.839,506.844 173.165,499.483 160.731,490.071 C 151.071,461.287 111.875,422.649 77.466,428.119 C 59.60,397.309 47.834,363.365 42.804,327.789 C 71.624,318.254 78.269,299.382 72.076,293.07 C 57.391,280.265 48.366,262.114 43.716,242.244 C 53.098,184.846 80.074,131.946 122.01,90.009 C 174.895,37.125 245.209,8.00 320.00,8.00 C 394.79,8.00 465.105,37.125 517.99,90.009 Z" data-tags="website" />
<glyph unicode="&#x2e;" d="M 595.872,561.349l-2.517,2.526c-58.843,58.834-155.121,58.834-213.954,0.00L 243.085,427.54
		c-58.834-58.833-58.834-155.11,0.00-213.944l 2.516-2.516c 4.895-4.905, 10.091-9.328, 15.46-13.411l 49.905,49.906
		c-5.814,3.434-11.329,7.545-16.322,12.537l-2.526,2.526c-31.946,31.936-31.946,83.92,0.00,115.869L 428.447,514.828
		c 31.947,31.949, 83.921,31.949, 115.866,0.00l 2.526-2.515c 31.938-31.947, 31.938-83.933,0.00-115.869l-61.679-61.679
		c 10.708-26.442, 15.78-54.625, 15.336-82.741l 95.378,95.378C 654.709,406.236, 654.709,502.513, 595.872,561.349zM 394.401,364.916c-4.895,4.895-10.091,9.326-15.46,13.40l-49.905-49.895c 5.815-3.435, 11.329-7.546, 16.322-12.539l 2.526-2.525
		c 31.947-31.947, 31.947-83.92,0.00-115.868L 211.554,61.156c-31.949-31.939-83.923-31.939-115.868,0.00l-2.526,2.526
		c-31.936,31.95-31.936,83.923,0.00,115.868l 61.68,61.679c-10.709,26.441-15.779,54.626-15.336,82.741l-95.376-95.374
		c-58.835-58.833-58.835-155.111,0.00-213.953l 2.516-2.52c 58.845-58.83, 155.12-58.83, 213.955,0.00l 136.319,136.324
		c 58.834,58.833, 58.834,155.121,0.00,213.954L 394.401,364.916z" data-tags="link" />
<glyph unicode="&#x2f;" d="M 561.475,568.00L 80.00,568.00 l0.00-80.00 L 21.475,488.00 C 10.475,488.00,0.00,480.17,0.00,469.17l0.00-40.00 C0.00,418.17, 10.475,408.00, 21.475,408.00L 80.00,408.00 l0.00-40.00 L 21.475,368.00 
	C 10.475,368.00,0.00,360.17,0.00,349.17l0.00-40.00 C0.00,298.17, 10.475,288.00, 21.475,288.00L 80.00,288.00 l0.00-40.00 L 21.475,248.00 C 10.475,248.00,0.00,240.17,0.00,229.17l0.00-40.00 
	C0.00,178.171, 10.475,168.00, 21.475,168.00L 80.00,168.00 l0.00-40.00 L 21.475,128.00 C 10.475,128.00,0.00,120.17,0.00,109.17l0.00-40.00 C0.00,58.17, 10.475,48.00, 21.475,48.00L 80.00,48.00 l0.00-80.00 l 481.475,0.00 
	c 22.093,0.00, 38.525,19.079, 38.525,41.17l0.00,520.00 C 600.00,551.261, 583.567,568.00, 561.475,568.00z M 200.00,8.00L 120.00,8.00 l0.00,40.00 l 21.475,0.00 c 11.00,0.00, 18.525,10.17, 18.525,21.17
	l0.00,40.00 c0.00,11.001-7.526,18.83-18.525,18.83L 120.00,128.00 l0.00,40.00 l 21.475,0.00 c 11.00,0.00, 18.525,10.17, 18.525,21.17l0.00,40.00 c0.00,11.001-7.526,18.83-18.525,18.83L 120.00,248.00 l0.00,40.00 
	l 21.475,0.00 c 11.00,0.00, 18.525,10.17, 18.525,21.17l0.00,40.00 c0.00,11.001-7.526,18.83-18.525,18.83L 120.00,368.00 l0.00,40.00 l 21.475,0.00 c 11.00,0.00, 18.525,10.17, 18.525,21.17l0.00,40.00 
	C 160.00,480.171, 152.475,488.00, 141.475,488.00L 120.00,488.00 L 120.00,528.00 l 80.00,0.00 L 200.00,8.00 z" data-tags="index" />
<glyph unicode="&#x30;" d="M 160.00,532.40L 480.00,532.40L 480.00,452.40L 160.00,452.40zM 600.00,412.40L 40.00,412.40 C 18.00,412.40,0.00,394.40,0.00,372.40l0.00-200.00 c0.00-22.00, 17.997-40.00, 40.00-40.00l 120.00,0.00 l0.00-160.00 l 320.00,0.00 L 480.00,132.40 l 120.00,0.00 c 22.00,0.00, 40.00,18.00, 40.00,40.00L 640.00,372.40 
		C 640.00,394.40, 622.00,412.40, 600.00,412.40z M 440.00,12.40L 200.00,12.40 L 200.00,212.40 l 240.00,0.00 L 440.00,12.40 z M 609.00,352.40c0.00-16.016-12.984-29.00-28.999-29.00
		c-16.016,0.00-29.001,12.984-29.001,29.00s 12.985,29.00, 29.001,29.00C 596.018,381.40, 609.00,368.416, 609.00,352.40z" data-tags="print" />
<glyph unicode="&#x31;" d="M0.00,608.00L 160.00,608.00L 160.00,448.00L0.00,448.00zM 240.00,568.00L 640.00,568.00L 640.00,488.00L 240.00,488.00zM0.00,368.00L 160.00,368.00L 160.00,208.00L0.00,208.00zM 240.00,328.00L 640.00,328.00L 640.00,248.00L 240.00,248.00zM0.00,128.00L 160.00,128.00L 160.00-32.00L0.00-32.00zM 240.00,88.00L 640.00,88.00L 640.00,8.00L 240.00,8.00z" data-tags="contents" />
<glyph unicode="&#x32;" d="M 610.00,128.00l-10.00,0.00 L 600.00,258.00 c0.00,38.597-31.401,70.00-70.00,70.00L 360.00,328.00 l0.00,80.00 l 10.00,0.00 c 16.50,0.00, 30.00,13.50, 30.00,30.00L 400.00,538.00 c0.00,16.50-13.50,30.00-30.00,30.00l-100.00,0.00 
	c-16.50,0.00-30.00-13.50-30.00-30.00l0.00-100.00 c0.00-16.50, 13.50-30.00, 30.00-30.00l 10.00,0.00 l0.00-80.00 L 110.00,328.00 c-38.597,0.00-70.00-31.402-70.00-70.00l0.00-130.00 l-10.00,0.00 c-16.50,0.00-30.00-13.50-30.00-30.00l0.00-100.00 
	c0.00-16.50, 13.50-30.00, 30.00-30.00l 100.00,0.00 c 16.50,0.00, 30.00,13.50, 30.00,30.00l0.00,100.00 c0.00,16.50-13.50,30.00-30.00,30.00l-10.00,0.00 l0.00,120.00 l 160.00,0.00 l0.00-120.00 l-10.00,0.00 c-16.50,0.00-30.00-13.50-30.00-30.00l0.00-100.00 
	c0.00-16.50, 13.50-30.00, 30.00-30.00l 100.00,0.00 c 16.50,0.00, 30.00,13.50, 30.00,30.00l0.00,100.00 c0.00,16.50-13.50,30.00-30.00,30.00l-10.00,0.00 l0.00,120.00 l 160.00,0.00 l0.00-120.00 l-10.00,0.00 c-16.50,0.00-30.00-13.50-30.00-30.00l0.00-100.00 
	c0.00-16.50, 13.50-30.00, 30.00-30.00l 100.00,0.00 c 16.50,0.00, 30.00,13.50, 30.00,30.00l0.00,100.00 C 640.00,114.50, 626.50,128.00, 610.00,128.00z M 120.00,8.00L 40.00,8.00 l0.00,80.00 l 80.00,0.00 L 120.00,8.00 z M 360.00,8.00l-80.00,0.00 l0.00,80.00 l 80.00,0.00 L 360.00,8.00 z
	 M 280.00,448.00L 280.00,528.00 l 80.00,0.00 l0.00-80.00 L 280.00,448.00 z M 600.00,8.00l-80.00,0.00 l0.00,80.00 l 80.00,0.00 L 600.00,8.00 z" data-tags="tree" />
<glyph unicode="&#x33;" d="M 627.678,443.87l-94.976-94.95l-67.635,26.18l-26.206,67.635L 533.837,537.685c-55.057,19.814-119.049,7.663-163.166-36.463
			c-44.117-44.143-56.303-108.109-36.463-163.191L 64.196,68.053l 93.815-93.867l 269.986,270.037c 55.083-19.814, 119.049-7.689, 163.191,36.463
			C 635.315,324.796, 647.492,388.787, 627.678,443.87z M 176.905,48.00c-10.778-10.778-28.22-10.778-38.997,0.00c-10.752,10.726-10.752,28.16,0.00,38.972
			c 10.778,10.726, 28.22,10.726, 38.997,0.00C 187.682,76.16, 187.682,58.726, 176.905,48.00z M 83.251,319.514l 69.931,0.00 L 153.182,399.966 l 80.444,0.00 L 233.626,469.897 L 153.182,469.897 L 153.182,550.366 
			L 83.251,550.366 l0.00-80.478 L 2.799,469.897 l0.00-69.931 l 80.444,0.00 L 83.251,319.514 z" data-tags="create_jf" />
<glyph unicode="&#x34;" d="M 387.354,595.20c-132.454,0.00-239.821-105.062-239.821-234.701c0.00-46.029, 13.542-89.011, 36.966-125.235c-0.179-0.102-0.358-0.154-0.538-0.256
	L 12.80,67.558L 101.427-19.20l 174.95,171.213c-0.026,0.154-0.026,0.307-0.077,0.486c 33.178-17.024, 70.938-26.701, 111.053-26.701
	c 132.454,0.00, 239.846,105.088, 239.846,234.726S 519.808,595.20, 387.354,595.20L 387.354,595.20z M 387.354,490.931c 73.626,0.00, 133.299-58.368, 133.299-130.432
	c0.00-71.987-59.674-130.406-133.299-130.406c-73.574,0.00-133.248,58.394-133.248,130.406C 254.106,432.563, 313.779,490.931, 387.354,490.931z" data-tags="glass" />
<glyph unicode="&#x35;" d="M 320.00,605.201c-175.198,0.00-317.201-142.003-317.201-317.201c0.00-175.223, 142.003-317.201, 317.201-317.201c 175.198,0.00, 317.201,141.978, 317.201,317.201C 637.201,463.198, 495.198,605.201, 320.00,605.201z
			 M 330.547,154.803l-10.786,0.00 l-204.407,147.866l 66.483,42.957l 143.744-90.035l 144.538,90.035l 65.314-42.957L 330.547,154.803z" data-tags="arrow-circle-down" />
<glyph unicode="&#x36;" d="M 12.80,585.199l0.00-397.133 L 12.80-29.201 l 217.242,0.00 L 627.20-29.201 L 627.20,367.957 l-100.813-100.813l0.00-195.558 l-195.584,0.00 L 113.613,71.586 l0.00,217.216 l0.00,195.584 l 195.558,0.00 L 409.958,585.199L 12.80,585.199 z M 550.40,585.199
	l-39.398-39.322l 76.80-76.80L 627.20,508.399L 550.40,585.199z M 492.544,527.292l-225.229-225.126l 76.80-76.851l 225.229,225.178L 492.544,527.292z M 239.053,266.581
	c-1.152-0.026-2.253-0.077-3.43-0.205l0.00-72.755 l 72.704,0.00 c0.00,19.789-9.421,39.987-24.218,54.016C 271.949,259.337, 256.154,266.837, 239.053,266.581z" data-tags="edit" />
<glyph unicode="&#x37;" d="M 231.475,314.778c 60.621,0.435, 112.282,49.946, 113.562,113.562c-0.486,62.003-49.357,111.13-113.562,113.562
			C 170.906,541.44, 118.963,491.904, 117.914,428.339C 118.349,367.334, 167.322,315.776, 231.475,314.778z M 323.277,291.226L 135.424,291.226 
			c-75.341-0.563-123.085-67.072-122.624-142.541l0.00-164.915 c0.00-6.426, 3.43-9.651, 10.266-9.651l 57.395,0.00 c 5.12,0.051, 10.01,3.763, 10.266,9.651l0.00,143.77 
			c 0.486,15.155, 24.294,20.915, 27.776,0.00l0.00-143.77 c0.00-6.426, 3.226-9.651, 9.651-9.651l 199.936,0.00 c 5.12,0.051, 10.01,3.763, 10.266,9.651l0.00,143.77 
			c 0.589,14.797, 24.038,20.531, 27.75,0.00l0.00-143.77 c0.00-6.426, 3.251-9.651, 9.702-9.651l 59.802,0.00 c 6.426,0.00, 9.651,3.226, 9.651,9.651l0.00,164.915 
			C 444.902,219.469, 403.968,290.278, 323.277,291.226z M 547.328,407.296L 547.328,487.194 l-69.453,0.00 l0.00-79.898 l-79.872,0.00 L 398.003,337.869 l 79.872,0.00 l0.00-79.872 l 69.453,0.00 L 547.328,337.869 l 79.872,0.00 L 627.20,407.296 L 547.328,407.296 z" data-tags="create_user" />
<glyph unicode="&#x38;" d="M 390.818,426.112L 321.212,472.243l-118.793-185.003l 119.475-183.45l 69.359,46.362l-93.022,138.402
			L 390.818,426.112z M 320.00,605.201c-175.172,0.00-317.201-142.029-317.201-317.201c0.00-175.198, 142.029-317.201, 317.201-317.201c 175.198,0.00, 317.201,142.003, 317.201,317.201C 637.201,463.172, 495.198,605.201, 320.00,605.201
			z M 320.00,5.265c-156.143,0.00-282.735,126.592-282.735,282.735S 163.857,570.735, 320.00,570.735S 602.735,444.143, 602.735,288.00S 476.143,5.265, 320.00,5.265z
			" data-tags="arrow-circle-back" />
<glyph unicode="&#x39;" d="M 320.00,605.201c-175.172,0.00-317.201-142.029-317.201-317.201s 142.029-317.201, 317.201-317.201s 317.201,142.029, 317.201,317.201S 495.172,605.201, 320.00,605.201z M 328.644,148.087l-77.423-76.339
			l-78.003,76.894l-78.908,77.824l 77.449,76.339l 78.959-77.85l 243.396,240.068l 77.978-76.894L 328.644,148.087z" data-tags="check-circle" />
<glyph unicode="&#x3a;" d="M 526.95,520.823L 213.914,212.13l-101.555,100.096L 12.80,214.05l 101.478-100.045l 100.301-98.842l 99.533,98.15L 627.20,421.982L 526.95,520.823z" data-tags="check" />
<glyph unicode="&#x3b;" d="M 14.541,234.214l 103.373,0.00 L 117.914,369.254 C 118.042,387.328, 124.928,404.301, 138.368,418.586
	c 12.39,12.211, 28.518,18.867, 47.053,19.968c 18.56-1.075, 34.662-7.757, 47.053-19.968c 13.414-14.285, 20.326-31.283, 20.454-49.331l0.00-135.066 L 627.20,234.189 l0.00-257.715 
	l-9.907,0.00 L 204.186-23.526 L 194.253-23.526 L 194.253,234.189 l 162.637,0.00 c0.00,0.00-3.123,203.418-0.358,138.138c0.00,0.00, 15.027,52.019-50.048,118.144c-71.066,68.25-177.101,62.464-242.125,0.00
	c-65.075-66.125-50.074-118.144-50.074-118.144C 16.256,418.048, 15.283,289.92, 14.541,234.214z" data-tags="access_enable" />
<glyph unicode="&#x3c;" d="M 556.288,252.143L 556.288-29.201 l-10.803,0.00 L 94.49-29.201 L 83.712-29.201 L 83.712,252.143 l 49.075,0.00 c0.00,0.00, 3.43,222.08, 0.384,150.81
	c0.00,0.00-16.384,56.781, 54.682,128.973c 73.933,71.014, 190.387,71.014, 264.32,0.00c 71.04-72.192, 54.656-128.973, 54.656-128.973
	c-3.021,71.296, 0.384-150.81, 0.384-150.81L 556.288,252.143 z M 393.728,252.143L 393.728,399.599 c-0.154,19.712-7.706,38.272-22.349,53.862
	c-13.542,13.338-31.13,20.608-51.379,21.786c-20.25-1.178-37.837-8.474-51.379-21.786C 253.978,437.871, 246.426,419.311, 246.298,399.599l0.00-147.456 L 393.728,252.143 z" data-tags="access_disable" />
<glyph unicode="&#x3d;" d="M 320.00,595.20c-169.651,0.00-307.20-137.549-307.20-307.20s 137.549-307.20, 307.20-307.20c 169.677,0.00, 307.20,137.549, 307.20,307.20
			S 489.677,595.20, 320.00,595.20z M 314.726,31.462c-137.446,2.458-250.394,110.438-251.443,255.181C 62.72,365.158, 96.307,425.60, 132.224,463.59
			c 37.888,40.09, 90.803,73.626, 169.498,80.102c 116.122,9.523, 199.117-58.01, 238.387-124.80C 646.707,237.67, 505.114,28.083, 314.726,31.462z
			 M 504.704,273.613c 0.973,10.24-2.022,24.397, 1.869,31.642l 39.117,0.00 c-8.346,75.469-40.525,127.155-89.421,162.074
			c-5.811-14.669-14.054-26.931-22.323-39.117c-9.933,4.992-19.866,9.958-27.955,16.768c 8.602,13.133, 16.256,27.213, 24.192,40.986
			c-53.197,37.274-167.885,35.302-221.619,0.00c 4.813-16.922, 16.077-27.366, 22.349-42.829C 219.725,439.373, 213.299,430.925, 201.114,428.211
			C 194.586,441.523, 187.878,454.707, 178.765,465.459C 135.475,427.418, 102.17,379.392, 94.95,305.254c 12.006-0.998, 28.237,2.15, 37.248-1.843
			c-0.973-10.24, 2.048-24.422-1.869-31.667L 94.95,271.744 c 16.512-118.17, 82.458-186.957, 197.427-206.72c 9.139,86.221, 15.155,175.462, 29.798,255.155
			c 6.861-86.912, 19.379-168.115, 26.112-255.155c 114.893,19.763, 180.941,88.474, 197.427,206.72C 532.454,272.768, 514.918,269.517, 504.704,273.613z" data-tags="dashboard" />
<glyph unicode="&#x3e;" d="M 321.971,336.64c-69.402,1.075-122.394,56.858-122.88,122.88c 1.126,68.736, 57.344,122.368, 122.88,122.88
	c 69.402-2.483, 122.88-56.525, 122.88-122.88C 443.443,390.707, 388.352,336.64, 321.971,336.64L 321.971,336.64z M 421.274,311.117c 87.373,0.00, 132.736-78.643, 132.736-154.24
	l0.00-178.406 c0.00-6.963-3.533-10.47-10.47-10.47l-64.742,0.00 c-6.963,0.00-10.445,3.507-10.445,10.47l0.00,155.546 c-4.019,22.17-29.363,16.00-30.054,0.00l0.00-155.546 
	c-0.384-6.40-5.658-10.368-11.162-10.47l-216.32,0.00 c-6.963,0.00-10.445,3.507-10.445,10.47l0.00,155.546 c-3.763,22.63-29.542,16.435-30.054,0.00l0.00-155.546 
	C 170.01-27.93, 164.736-31.898, 159.206-32.00L 97.075-32.00 c-7.398,0.00-11.085,3.507-11.085,10.47l0.00,178.406 c-0.512,81.638, 51.174,153.677, 132.659,154.24l 103.936,0.00 
	L 421.274,311.117 z" data-tags="users" />
<glyph unicode="&#x3f;" d="M 327.654-32.00l 126.618,73.318l 1.536,21.862l-128.026-65.869L 327.654-32.00z M 175.258,469.658L 201.728,38.733l 125.875-69.274L 330.086,582.40L 175.258,469.658z
		 M 327.936,43.085l 130.176,53.888l 1.613,23.219l-131.686-45.414L 327.936,43.085z M 473.114,313.011l-143.974,37.837l-0.128-41.216l 142.157-24.448
		L 473.114,313.011z M 478.182,385.766l-148.557,75.187l-0.179-45.312l 146.662-59.546L 478.182,385.766z M 328.243,124.442l 133.965,31.565l 1.69,24.576
		l-135.526-21.658L 328.243,124.442z M 328.627,212.915l 138.01,5.709l 1.766,26.138l-139.597,5.811L 328.627,212.915z M 481.382,431.744l 2.202,31.718
		L 330.112,582.40l-0.205-50.074L 481.382,431.744z M 123.52,276.326l 38.17-6.349L 160.00,293.658l-38.912,9.754L 123.52,276.326z M 117.274,345.37l 40.013-15.181
		L 155.469,355.226L 114.662,374.246L 117.274,345.37z M 152.627,393.882L 150.682,420.378L 107.827,449.792L 110.592,418.995L 152.627,393.882z M 129.434,211.43l 36.454,1.51
		l-1.613,22.451l-37.12,1.51L 129.434,211.43z M 140.237,92.621l 33.434,14.822l-1.51,20.25l-33.997-12.365L 140.237,92.621z M 134.989,150.272
		l 34.867,8.55l-1.562,21.299L 132.787,174.336L 134.989,150.272z M 143.232,59.546l 1.971-21.427l 32.077,20.429L 175.821,77.824L 143.232,59.546z
		 M 12.826,379.75l 39.296-290.176l 92.928-50.381L 107.776,449.792L 12.826,379.75z M 523.29,345.37l 94.566-38.528l 2.586,19.277l-94.49,48.102L 523.29,345.37
		z M 532.787,449.766l-2.79-30.797l 94.438-63.258l 2.714,20.147L 532.787,449.766z M 517.043,276.326l 94.438-16.23l 2.534,18.458l-94.49,24.858
		L 517.043,276.326z M 511.13,211.43l 94.336,3.84l 2.406,17.69l-94.387,3.891L 511.13,211.43z M 495.411,38.118l 93.21,53.274l 2.15,15.642
		l-93.44-47.488L 495.411,38.118z M 532.787,449.766l-39.885-25.933l-27.392-366.643l 29.952-17.971L 532.787,449.766z M 500.352,92.621l 93.67,38.40
		l 2.202,16.358l-93.798-32.051L 500.352,92.621z M 505.549,150.272l 94.029,22.016l 2.33,16.973l-94.131-14.95L 505.549,150.272z" data-tags="company" />
<glyph unicode="&#x40;" d="M 516.685,585.318c-59.085,21.274-127.718,8.243-175.078-39.091c-47.36-47.36-60.365-116.019-39.117-175.078L 12.80,81.485
	L 113.459-19.20l 289.69,289.664c 59.085-21.274, 127.718-8.218, 175.053,39.117c 47.36,47.36, 60.339,115.994, 39.117,175.078l-101.862-101.862L 442.88,410.906
	l-28.109,72.55L 516.685,585.318z M 133.76,101.76c 11.52-11.546, 11.52-30.285,0.00-41.83c-11.546-11.52-30.31-11.52-41.83,0.00
	c-11.546,11.546-11.546,30.31,0.00,41.83C 103.45,113.331, 122.189,113.331, 133.76,101.76z" data-tags="jobfunctions" />
<glyph unicode="&#x41;" d="M 320.00,608.00C 143.28,608.00,0.00,464.773,0.00,288.027S 143.28-32.00, 320.00-32.00s 320.00,143.28, 320.00,320.027C 640.00,464.72, 496.72,608.00, 320.00,608.00z M 320.00,538.48
	c 138.347,0.00, 250.427-112.187, 250.427-250.453c0.00-138.347-112.08-250.453-250.427-250.453s-250.453,112.133-250.453,250.453C 69.60,426.293, 181.68,538.48, 320.00,538.48z
	 M 442.613,439.92l-185.467-185.493l-60.187,60.16l-58.987-59.013l 60.133-60.107l 59.44-59.44l 59.013,59.04l 185.467,185.467L 442.613,439.92z" data-tags="approvals" />
<glyph unicode="&#x21;" d="M 320.00,128.00L0.00,328.00l 120.00,80.00l 200.16-116.28l 200.00,120.00L 640.00,328.00L 320.00,128.00z" data-tags="icon_arrow_down" />
<glyph unicode="&#x20;" horiz-adv-x="320" />
<glyph class="hidden" unicode="&#xf000;" d="M0,608L 640 -32L0 -32 z" horiz-adv-x="0" />
</font>
</defs>
</svg>
